<?xml version="1.0" standalone="no"?><!DOCTYPE svg PUBLIC "-//W3C//DTD SVG 1.1//EN" "http://www.w3.org/Graphics/SVG/1.1/DTD/svg11.dtd"><svg t="1630666502660" class="icon" viewBox="0 0 1024 1024" version="1.1" xmlns="http://www.w3.org/2000/svg" p-id="3850" width="32" height="32" xmlns:xlink="http://www.w3.org/1999/xlink"><defs><style type="text/css"></style></defs><path d="M232.727273 256a162.909091 162.909091 0 0 0 325.818182 0 162.909091 162.909091 0 0 0-325.818182 0z m608.954182 538.484364c-12.8-27.880727-39.144727-109.986909-69.213091-109.986909-30.114909 0-32.581818 11.124364-32.581819 11.124363l32.581819 85.085091-166.539637-14.103273-70.423272-162.909091C466.618182 437.76 397.824 418.909091 330.565818 418.909091c-32.488727 0-100.864 3.816727-153.134545 68.561454C125.114182 552.168727 93.090909 910.708364 93.090909 910.708364h318.789818l-114.548363-217.879273 48.407272-29.928727s8.517818 18.106182 64.698182 135.028363C466.664727 914.897455 505.111273 930.909091 505.111273 930.909091h299.566545c44.125091 0 79.685818-13.963636 79.685818-69.632s-42.682182-66.792727-42.682181-66.792727zM699.252364 465.454545s-27.880727 58.833455-49.989819 84.061091c-22.155636 25.227636-65.489455 89.367273-31.790545 140.846546l99.141818-177.803637 206.941091 103.191273-76.055273 123.997091s-10.565818 49.384727 3.863273 51.525818c14.429091 2.094545 126.091636-196.561455 126.091636-196.561454L699.298909 465.454545z" p-id="3851"></path></svg>