<?xml version="1.0" standalone="no"?><!DOCTYPE svg PUBLIC "-//W3C//DTD SVG 1.1//EN" "http://www.w3.org/Graphics/SVG/1.1/DTD/svg11.dtd"><svg t="1630666623603" class="icon" viewBox="0 0 1024 1024" version="1.1" xmlns="http://www.w3.org/2000/svg" p-id="4638" width="32" height="32" xmlns:xlink="http://www.w3.org/1999/xlink"><defs><style type="text/css"></style></defs><path d="M767.95904 571.392c129.024 0 233.472 100.88448 232.93952 225.77152 0 124.43648-103.91552 225.81248-232.93952 225.81248-128.53248 0-232.98048-100.88448-232.98048-225.81248s104.448-225.77152 232.98048-225.77152zM535.51104 0.49152v132.096c1.51552 46.61248 24.04352 96.256 68.07552 116.24448 14.86848 6.67648 31.25248 7.65952 47.104 7.65952h141.312v253.952c-46.08-4.58752-93.67552-0.49152-137.216 15.89248a292.29056 292.29056 0 0 0-142.336 114.15552H212.992c-19.98848 0-39.44448 10.77248-51.2 26.624a64.7168 64.7168 0 0 0-8.192 60.94848c9.216 23.552 33.792 40.46848 58.85952 40.46848H466.944c-6.144 67.584 10.73152 137.70752 50.176 193.49504H155.60704c-16.384 0-32.27648-5.07904-46.61248-12.288-28.672-14.82752-53.73952-36.864-70.656-64.512-10.73152-16.87552-17.408-36.864-16.87552-56.81152V139.264c-1.55648-38.912 18.432-76.26752 45.54752-102.89152C86.46656 18.432 110.01856 3.072 137.216 0.53248h398.336zM886.21056 679.936H653.312c-20.48 0-36.864 16.384-36.864 36.864v42.51648c18.432 8.68352 30.72 27.60704 30.72 49.152 0 21.46304-12.82048 39.89504-30.72 49.152v42.47552c0 20.48 16.384 36.864 36.864 36.864h232.93952c20.48 0 36.864-16.384 36.864-36.864v-42.51648a54.14912 54.14912 0 0 1-30.72-49.152c0-21.46304 12.82048-39.89504 30.72-49.152V716.8c0-20.48-16.384-36.864-36.864-36.864z m-175.104 146.92352h116.736c4.25984 0 7.82336 2.8672 8.88832 6.7584l0.32768 2.4576v6.144c0 4.3008-2.8672 7.82336-6.7584 8.92928l-2.4576 0.32768h-116.736a9.17504 9.17504 0 0 1-8.88832-6.7584l-0.32768-2.4576v-6.144c0-4.3008 2.8672-7.82336 6.7584-8.92928l2.4576-0.32768h116.736z m0-61.44h116.736c4.25984 0 7.82336 2.8672 8.88832 6.7584l0.32768 2.4576v6.144c0 4.3008-2.8672 7.82336-6.7584 8.92928l-2.4576 0.32768h-116.736a9.17504 9.17504 0 0 1-8.88832-6.7584l-0.32768-2.4576v-6.144c0-4.3008 2.8672-7.82336 6.7584-8.92928l2.4576-0.32768h116.736zM203.73504 386.048c-21.504 3.072-40.96 18.92352-49.152 38.912-8.192 20.97152-5.12 46.08 9.216 63.488 11.75552 15.36 31.21152 25.06752 50.66752 25.06752h385.55648c30.72 0.53248 58.85952-24.576 62.95552-54.76352 7.168-36.864-24.576-73.728-61.93152-73.19552H220.61056a62.34112 62.34112 0 0 0-16.87552 0.49152zM610.26304 0.49152c27.11552 4.62848 47.104 25.10848 67.584 41.49248 35.84 30.72 73.19552 60.94848 101.86752 98.83648 11.264 14.336 14.86848 32.23552 13.312 50.13504h-151.552a25.72288 25.72288 0 0 1-20.97152-11.22304 92.16 92.16 0 0 1-19.98848-53.248C600.064 84.992 600.064 43.008 600.064 0.53248h10.24z" p-id="4639"></path></svg>